<?xml version="1.0" standalone="no"?>
<!DOCTYPE svg PUBLIC "-//W3C//DTD SVG 20010904//EN"
 "http://www.w3.org/TR/2001/REC-SVG-20010904/DTD/svg10.dtd">
<svg version="1.0" xmlns="http://www.w3.org/2000/svg"
 width="1800.000000pt" height="1800.000000pt" viewBox="0 0 1800.000000 1800.000000"
 preserveAspectRatio="xMidYMid meet">
<metadata>
Created by potrace 1.11, written by Peter Selinger 2001-2013
</metadata>
<g transform="translate(0.000000,1800.000000) scale(0.100000,-0.100000)"
fill="#000000" stroke="none">
<path d="M8938 17995 c-2 -1 -64 -6 -138 -9 -74 -4 -151 -9 -170 -11 -19 -1
-71 -6 -115 -9 -44 -4 -93 -8 -110 -10 -16 -2 -61 -7 -98 -11 -37 -3 -78 -8
-89 -10 -12 -3 -46 -7 -77 -10 -48 -5 -202 -27 -281 -41 -179 -31 -264 -47
-365 -69 -66 -15 -131 -29 -145 -31 -135 -25 -542 -138 -795 -221 -607 -198
-1287 -513 -1805 -835 -52 -33 -104 -65 -115 -71 -115 -69 -529 -357 -650
-453 -141 -112 -302 -241 -311 -249 -13 -12 -118 -104 -154 -135 -162 -139
-531 -503 -680 -670 -47 -52 -87 -97 -90 -100 -3 -3 -35 -39 -70 -80 -35 -41
-66 -77 -69 -80 -25 -21 -410 -521 -456 -592 -5 -9 -55 -83 -111 -164 -298
-441 -557 -918 -774 -1424 -48 -113 -91 -216 -95 -230 -4 -14 -13 -38 -21 -55
-49 -109 -177 -489 -244 -729 -22 -78 -44 -154 -50 -171 -23 -76 -117 -490
-135 -595 -3 -19 -8 -46 -10 -60 -12 -59 -15 -76 -19 -100 -3 -14 -8 -45 -12
-70 -4 -25 -8 -52 -9 -60 -1 -8 -5 -35 -9 -60 -11 -69 -14 -90 -21 -150 -3
-30 -8 -66 -10 -80 -2 -14 -6 -47 -9 -75 -4 -27 -8 -68 -11 -90 -2 -22 -7 -74
-10 -115 -4 -41 -8 -93 -10 -115 -14 -160 -20 -369 -20 -670 1 -397 11 -636
40 -885 2 -19 7 -64 11 -100 3 -36 7 -72 9 -80 2 -8 6 -44 10 -80 3 -36 8 -72
10 -80 2 -8 7 -35 10 -60 6 -41 46 -282 66 -390 63 -350 223 -932 351 -1275
48 -128 148 -387 163 -421 8 -16 30 -66 48 -110 146 -337 311 -655 556 -1067
80 -135 332 -507 431 -638 144 -190 360 -461 390 -489 3 -3 23 -25 44 -50 163
-187 504 -537 666 -684 36 -33 87 -79 113 -103 153 -142 490 -409 782 -620 77
-55 391 -262 469 -309 28 -16 66 -39 85 -51 37 -23 44 -27 146 -83 33 -19 96
-54 140 -79 78 -45 464 -238 555 -279 25 -10 68 -30 95 -42 187 -85 566 -230
805 -308 196 -64 543 -164 650 -187 8 -1 78 -17 155 -34 77 -17 151 -33 165
-36 14 -3 36 -7 50 -10 42 -9 72 -14 165 -31 117 -20 132 -22 180 -29 22 -4
47 -8 55 -10 8 -2 42 -7 75 -11 33 -3 67 -8 76 -9 9 -2 40 -6 70 -10 30 -3 70
-8 89 -10 19 -2 67 -7 105 -11 39 -3 88 -8 110 -10 229 -23 359 -28 750 -28
329 -1 535 5 690 19 22 2 74 6 115 10 41 3 91 8 110 10 19 2 60 7 90 10 30 3
66 8 80 10 14 3 45 7 70 10 39 3 77 9 220 30 112 16 180 28 210 35 19 5 51 11
70 14 36 6 49 8 136 26 28 6 63 13 79 16 16 3 32 7 35 9 4 2 22 7 41 10 51 9
230 53 354 87 61 17 115 31 120 32 55 12 366 113 555 181 431 156 912 373
1255 567 263 149 340 196 535 324 58 37 113 73 122 79 92 56 470 336 630 467
281 230 701 625 909 853 124 137 223 251 306 351 96 117 112 136 135 168 13
16 34 44 49 60 122 147 431 601 586 861 151 255 177 302 316 580 128 255 216
451 309 690 38 99 74 189 79 200 15 36 106 307 134 400 15 50 35 117 45 150
17 56 56 194 65 233 3 9 9 35 15 57 6 22 13 51 16 65 2 14 9 39 14 55 7 25 38
161 56 250 2 11 8 43 14 71 6 28 13 61 15 75 2 13 13 76 24 139 21 120 56 353
65 430 12 113 19 167 22 195 2 17 6 66 10 110 3 44 8 96 10 115 31 301 24
1105 -12 1450 -4 36 -8 81 -10 100 -4 50 -23 214 -34 290 -21 145 -38 256 -45
295 -13 67 -37 201 -40 215 -34 177 -83 379 -170 705 -115 433 -354 1041 -601
1530 -168 334 -306 569 -523 894 -64 95 -120 181 -126 189 -5 9 -15 23 -22 31
-6 9 -55 75 -108 146 -124 168 -275 358 -356 450 -15 17 -64 73 -109 125 -159
182 -494 523 -664 675 -49 44 -101 91 -116 105 -28 26 -34 31 -135 115 -33 28
-69 58 -80 68 -11 10 -90 72 -175 138 -85 66 -163 127 -172 134 -10 8 -79 58
-154 111 -685 482 -1371 838 -2139 1109 -82 29 -157 55 -165 58 -19 8 -326
100 -400 121 -144 40 -387 99 -492 120 -13 3 -66 14 -118 24 -52 11 -111 23
-130 26 -19 3 -46 8 -60 10 -14 3 -38 8 -55 11 -16 3 -61 10 -100 15 -38 6
-77 12 -85 15 -8 2 -42 7 -75 10 -32 4 -62 8 -65 10 -3 1 -41 6 -85 10 -44 4
-82 8 -85 10 -7 4 -262 27 -465 41 -69 5 -862 14 -867 9z"/>
</g>
</svg>
